<mxfile host="app.diagrams.net" agent="Mozilla/5.0 (Windows NT 10.0; Win64; x64) AppleWebKit/537.36 (KHTML, like Gecko) Chrome/131.0.0.0 Safari/537.36 Edg/131.0.0.0" version="24.8.4">
  <diagram name="第 1 页" id="KEX1DeN6VIryzkRoY62D">
    <mxGraphModel dx="2460" dy="735" grid="1" gridSize="10" guides="1" tooltips="1" connect="1" arrows="1" fold="1" page="1" pageScale="1" pageWidth="827" pageHeight="1169" math="0" shadow="0">
      <root>
        <mxCell id="0" />
        <mxCell id="1" parent="0" />
        <mxCell id="yiRDW56pO0GK_cdznQ7R-45" value="" style="rounded=0;whiteSpace=wrap;html=1;" vertex="1" parent="1">
          <mxGeometry x="370" y="257.5" width="420" height="300" as="geometry" />
        </mxCell>
        <mxCell id="yiRDW56pO0GK_cdznQ7R-16" value="" style="group" vertex="1" connectable="0" parent="1">
          <mxGeometry x="414" y="180" width="90" height="50" as="geometry" />
        </mxCell>
        <mxCell id="yiRDW56pO0GK_cdznQ7R-12" value="" style="rounded=0;whiteSpace=wrap;html=1;" vertex="1" parent="yiRDW56pO0GK_cdznQ7R-16">
          <mxGeometry width="90" height="50" as="geometry" />
        </mxCell>
        <mxCell id="yiRDW56pO0GK_cdznQ7R-13" value="glfwwindow窗口" style="text;html=1;align=center;verticalAlign=middle;whiteSpace=wrap;rounded=0;" vertex="1" parent="yiRDW56pO0GK_cdznQ7R-16">
          <mxGeometry width="67.5" height="30" as="geometry" />
        </mxCell>
        <mxCell id="yiRDW56pO0GK_cdznQ7R-20" style="edgeStyle=orthogonalEdgeStyle;rounded=0;orthogonalLoop=1;jettySize=auto;html=1;" edge="1" parent="1" source="yiRDW56pO0GK_cdznQ7R-12" target="yiRDW56pO0GK_cdznQ7R-19">
          <mxGeometry relative="1" as="geometry" />
        </mxCell>
        <mxCell id="yiRDW56pO0GK_cdznQ7R-30" style="edgeStyle=orthogonalEdgeStyle;rounded=0;orthogonalLoop=1;jettySize=auto;html=1;entryX=0;entryY=0.5;entryDx=0;entryDy=0;" edge="1" parent="1" source="yiRDW56pO0GK_cdznQ7R-22" target="yiRDW56pO0GK_cdznQ7R-23">
          <mxGeometry relative="1" as="geometry">
            <Array as="points">
              <mxPoint x="500" y="352.5" />
              <mxPoint x="500" y="290.5" />
            </Array>
          </mxGeometry>
        </mxCell>
        <mxCell id="yiRDW56pO0GK_cdznQ7R-31" style="edgeStyle=orthogonalEdgeStyle;rounded=0;orthogonalLoop=1;jettySize=auto;html=1;entryX=0;entryY=0.5;entryDx=0;entryDy=0;" edge="1" parent="1" source="yiRDW56pO0GK_cdznQ7R-22" target="yiRDW56pO0GK_cdznQ7R-27">
          <mxGeometry relative="1" as="geometry" />
        </mxCell>
        <mxCell id="yiRDW56pO0GK_cdznQ7R-32" style="edgeStyle=orthogonalEdgeStyle;rounded=0;orthogonalLoop=1;jettySize=auto;html=1;entryX=0;entryY=0.5;entryDx=0;entryDy=0;" edge="1" parent="1" source="yiRDW56pO0GK_cdznQ7R-22" target="yiRDW56pO0GK_cdznQ7R-28">
          <mxGeometry relative="1" as="geometry" />
        </mxCell>
        <mxCell id="yiRDW56pO0GK_cdznQ7R-22" value="OpenGL" style="rounded=0;whiteSpace=wrap;html=1;" vertex="1" parent="1">
          <mxGeometry x="380" y="342.5" width="90" height="40" as="geometry" />
        </mxCell>
        <mxCell id="yiRDW56pO0GK_cdznQ7R-23" value="OpenGLContext" style="rounded=0;whiteSpace=wrap;html=1;" vertex="1" parent="1">
          <mxGeometry x="520" y="267.5" width="100" height="45" as="geometry" />
        </mxCell>
        <mxCell id="yiRDW56pO0GK_cdznQ7R-19" value="windowswindow窗口" style="rounded=0;whiteSpace=wrap;html=1;" vertex="1" parent="1">
          <mxGeometry x="560" y="175" width="120" height="60" as="geometry" />
        </mxCell>
        <mxCell id="yiRDW56pO0GK_cdznQ7R-27" value="OpenGLShader" style="rounded=0;whiteSpace=wrap;html=1;" vertex="1" parent="1">
          <mxGeometry x="550" y="325" width="100" height="42.5" as="geometry" />
        </mxCell>
        <mxCell id="yiRDW56pO0GK_cdznQ7R-28" value="OpenGLBuffer" style="rounded=0;whiteSpace=wrap;html=1;" vertex="1" parent="1">
          <mxGeometry x="540" y="382.5" width="100" height="50" as="geometry" />
        </mxCell>
        <mxCell id="yiRDW56pO0GK_cdznQ7R-29" value="&lt;font style=&quot;font-size: 18px;&quot;&gt;..........................&lt;/font&gt;" style="text;strokeColor=none;fillColor=none;align=left;verticalAlign=middle;spacingLeft=4;spacingRight=4;overflow=hidden;points=[[0,0.5],[1,0.5]];portConstraint=eastwest;rotatable=0;whiteSpace=wrap;html=1;" vertex="1" parent="1">
          <mxGeometry x="550" y="410" width="40" height="80" as="geometry" />
        </mxCell>
        <mxCell id="yiRDW56pO0GK_cdznQ7R-34" value="window（平台层的抽象）" style="rounded=0;whiteSpace=wrap;html=1;" vertex="1" parent="1">
          <mxGeometry x="190" y="170" width="120" height="60" as="geometry" />
        </mxCell>
        <mxCell id="yiRDW56pO0GK_cdznQ7R-35" value="" style="shape=flexArrow;endArrow=classic;html=1;rounded=0;" edge="1" parent="1">
          <mxGeometry width="50" height="50" relative="1" as="geometry">
            <mxPoint x="300" y="397" as="sourcePoint" />
            <mxPoint x="370" y="397" as="targetPoint" />
          </mxGeometry>
        </mxCell>
        <mxCell id="yiRDW56pO0GK_cdznQ7R-36" value="" style="shape=flexArrow;endArrow=classic;html=1;rounded=0;" edge="1" parent="1">
          <mxGeometry width="50" height="50" relative="1" as="geometry">
            <mxPoint x="320" y="199.5" as="sourcePoint" />
            <mxPoint x="390" y="199.5" as="targetPoint" />
          </mxGeometry>
        </mxCell>
        <mxCell id="yiRDW56pO0GK_cdznQ7R-37" value="rendererAPI的抽象层&lt;div&gt;(例如shader)&lt;/div&gt;" style="rounded=0;whiteSpace=wrap;html=1;" vertex="1" parent="1">
          <mxGeometry x="170" y="367.5" width="120" height="60" as="geometry" />
        </mxCell>
        <mxCell id="yiRDW56pO0GK_cdznQ7R-40" style="edgeStyle=orthogonalEdgeStyle;rounded=0;orthogonalLoop=1;jettySize=auto;html=1;" edge="1" parent="1" source="yiRDW56pO0GK_cdznQ7R-38" target="yiRDW56pO0GK_cdznQ7R-39">
          <mxGeometry relative="1" as="geometry" />
        </mxCell>
        <mxCell id="yiRDW56pO0GK_cdznQ7R-38" value="DirextX12" style="rounded=0;whiteSpace=wrap;html=1;" vertex="1" parent="1">
          <mxGeometry x="390" y="470" width="90" height="40" as="geometry" />
        </mxCell>
        <mxCell id="yiRDW56pO0GK_cdznQ7R-39" value="&lt;font style=&quot;font-size: 18px;&quot;&gt;...............&lt;/font&gt;" style="text;strokeColor=none;fillColor=none;align=left;verticalAlign=middle;spacingLeft=4;spacingRight=4;overflow=hidden;points=[[0,0.5],[1,0.5]];portConstraint=eastwest;rotatable=0;whiteSpace=wrap;html=1;" vertex="1" parent="1">
          <mxGeometry x="510" y="475" width="80" height="30" as="geometry" />
        </mxCell>
        <mxCell id="yiRDW56pO0GK_cdznQ7R-41" value="" style="endArrow=none;html=1;rounded=0;" edge="1" parent="1">
          <mxGeometry width="50" height="50" relative="1" as="geometry">
            <mxPoint y="240" as="sourcePoint" />
            <mxPoint x="810" y="240" as="targetPoint" />
          </mxGeometry>
        </mxCell>
        <mxCell id="yiRDW56pO0GK_cdznQ7R-43" value="" style="shape=flexArrow;endArrow=classic;html=1;rounded=0;entryX=0;entryY=0.5;entryDx=0;entryDy=0;exitX=1;exitY=0.5;exitDx=0;exitDy=0;" edge="1" parent="1" source="yiRDW56pO0GK_cdznQ7R-44" target="yiRDW56pO0GK_cdznQ7R-37">
          <mxGeometry width="50" height="50" relative="1" as="geometry">
            <mxPoint x="120" y="400" as="sourcePoint" />
            <mxPoint x="160" y="360" as="targetPoint" />
          </mxGeometry>
        </mxCell>
        <mxCell id="yiRDW56pO0GK_cdznQ7R-44" value="Renderer（根据渲染提交的工作流进行抽象）" style="rounded=0;whiteSpace=wrap;html=1;" vertex="1" parent="1">
          <mxGeometry x="-10" y="367.5" width="120" height="60" as="geometry" />
        </mxCell>
        <mxCell id="yiRDW56pO0GK_cdznQ7R-49" value="" style="group" vertex="1" connectable="0" parent="1">
          <mxGeometry x="-180" y="680" width="430" height="230" as="geometry" />
        </mxCell>
        <mxCell id="yiRDW56pO0GK_cdznQ7R-47" value="" style="rounded=0;whiteSpace=wrap;html=1;" vertex="1" parent="yiRDW56pO0GK_cdznQ7R-49">
          <mxGeometry width="430" height="230" as="geometry" />
        </mxCell>
        <mxCell id="yiRDW56pO0GK_cdznQ7R-48" value="Application" style="text;strokeColor=none;fillColor=none;align=left;verticalAlign=middle;spacingLeft=4;spacingRight=4;overflow=hidden;points=[[0,0.5],[1,0.5]];portConstraint=eastwest;rotatable=0;whiteSpace=wrap;html=1;" vertex="1" parent="yiRDW56pO0GK_cdznQ7R-49">
          <mxGeometry width="80" height="30" as="geometry" />
        </mxCell>
        <mxCell id="yiRDW56pO0GK_cdznQ7R-50" value="window" style="rounded=0;whiteSpace=wrap;html=1;" vertex="1" parent="yiRDW56pO0GK_cdznQ7R-49">
          <mxGeometry x="10" y="30" width="110" height="30" as="geometry" />
        </mxCell>
        <mxCell id="yiRDW56pO0GK_cdznQ7R-51" value="LayerStack管理Layer层，及时更新，并渲染" style="rounded=0;whiteSpace=wrap;html=1;" vertex="1" parent="yiRDW56pO0GK_cdznQ7R-49">
          <mxGeometry x="10" y="70" width="110" height="100" as="geometry" />
        </mxCell>
        <mxCell id="yiRDW56pO0GK_cdznQ7R-52" value="windowsInput(轮询方式)" style="rounded=0;whiteSpace=wrap;html=1;" vertex="1" parent="1">
          <mxGeometry x="560" y="110" width="120" height="60" as="geometry" />
        </mxCell>
        <mxCell id="yiRDW56pO0GK_cdznQ7R-53" style="edgeStyle=orthogonalEdgeStyle;rounded=0;orthogonalLoop=1;jettySize=auto;html=1;entryX=0;entryY=0.5;entryDx=0;entryDy=0;" edge="1" parent="1" source="yiRDW56pO0GK_cdznQ7R-12" target="yiRDW56pO0GK_cdznQ7R-52">
          <mxGeometry relative="1" as="geometry" />
        </mxCell>
        <mxCell id="yiRDW56pO0GK_cdznQ7R-65" value="" style="edgeStyle=orthogonalEdgeStyle;rounded=0;orthogonalLoop=1;jettySize=auto;html=1;" edge="1" parent="1" source="yiRDW56pO0GK_cdznQ7R-54" target="yiRDW56pO0GK_cdznQ7R-64">
          <mxGeometry relative="1" as="geometry" />
        </mxCell>
        <mxCell id="yiRDW56pO0GK_cdznQ7R-54" value="全局使用的Renderer&lt;div&gt;因为静态函数，可以直接用&lt;/div&gt;" style="rounded=0;whiteSpace=wrap;html=1;" vertex="1" parent="1">
          <mxGeometry x="-473" y="610" width="120" height="60" as="geometry" />
        </mxCell>
        <mxCell id="yiRDW56pO0GK_cdznQ7R-55" value="" style="shape=flexArrow;endArrow=classic;html=1;rounded=0;exitX=0;exitY=0.5;exitDx=0;exitDy=0;" edge="1" parent="1" source="yiRDW56pO0GK_cdznQ7R-54">
          <mxGeometry width="50" height="50" relative="1" as="geometry">
            <mxPoint x="110" y="630" as="sourcePoint" />
            <mxPoint x="-540" y="640" as="targetPoint" />
          </mxGeometry>
        </mxCell>
        <mxCell id="yiRDW56pO0GK_cdznQ7R-56" value="已经为Layer层提供了渲染流，对于Layer只要提交渲染数据即可" style="rounded=0;whiteSpace=wrap;html=1;" vertex="1" parent="1">
          <mxGeometry x="-660" y="592" width="120" height="96" as="geometry" />
        </mxCell>
        <mxCell id="yiRDW56pO0GK_cdznQ7R-60" value="" style="edgeStyle=orthogonalEdgeStyle;rounded=0;orthogonalLoop=1;jettySize=auto;html=1;" edge="1" parent="1" source="yiRDW56pO0GK_cdznQ7R-57" target="yiRDW56pO0GK_cdznQ7R-59">
          <mxGeometry relative="1" as="geometry" />
        </mxCell>
        <mxCell id="yiRDW56pO0GK_cdznQ7R-62" style="edgeStyle=orthogonalEdgeStyle;rounded=0;orthogonalLoop=1;jettySize=auto;html=1;exitX=1;exitY=0.5;exitDx=0;exitDy=0;entryX=0;entryY=0.5;entryDx=0;entryDy=0;" edge="1" parent="1" source="yiRDW56pO0GK_cdznQ7R-57" target="yiRDW56pO0GK_cdznQ7R-51">
          <mxGeometry relative="1" as="geometry" />
        </mxCell>
        <mxCell id="yiRDW56pO0GK_cdznQ7R-57" value="各个具体实现的Layer层（例如exampleLayer）" style="rounded=0;whiteSpace=wrap;html=1;" vertex="1" parent="1">
          <mxGeometry x="-480" y="770" width="120" height="60" as="geometry" />
        </mxCell>
        <mxCell id="yiRDW56pO0GK_cdznQ7R-59" value="Layer在构造函数中是会回去对应的window句柄的。&lt;div&gt;同时事件分发有俩种机制，一个是利用dispathc事件分发器发送事件，自己写回调函数。另外就是windowsInput提供的轮询机制。&lt;/div&gt;&lt;div&gt;同时Layer内部自己完成想要渲染的对象数据，提交给Renderer&lt;/div&gt;" style="whiteSpace=wrap;html=1;rounded=0;" vertex="1" parent="1">
          <mxGeometry x="-510" y="900" width="180" height="150" as="geometry" />
        </mxCell>
        <mxCell id="yiRDW56pO0GK_cdznQ7R-61" value="" style="shape=flexArrow;endArrow=classic;html=1;rounded=0;exitX=0.425;exitY=1.012;exitDx=0;exitDy=0;exitPerimeter=0;" edge="1" parent="1" source="yiRDW56pO0GK_cdznQ7R-54" target="yiRDW56pO0GK_cdznQ7R-57">
          <mxGeometry width="50" height="50" relative="1" as="geometry">
            <mxPoint x="-60" y="880" as="sourcePoint" />
            <mxPoint x="-10" y="830" as="targetPoint" />
          </mxGeometry>
        </mxCell>
        <mxCell id="yiRDW56pO0GK_cdznQ7R-64" value="Renderer大体是个文件夹里面有很多抽象实现，而且还没分类" style="whiteSpace=wrap;html=1;rounded=0;" vertex="1" parent="1">
          <mxGeometry x="-473" y="470" width="120" height="60" as="geometry" />
        </mxCell>
      </root>
    </mxGraphModel>
  </diagram>
</mxfile>
